<?xml version="1.0" encoding="utf-8"?>
<!-- Generator: Adobe Illustrator 27.5.0, SVG Export Plug-In . SVG Version: 6.00 Build 0)  -->
<svg version="1.1" id="Layer_1" xmlns="http://www.w3.org/2000/svg" xmlns:xlink="http://www.w3.org/1999/xlink" x="0px" y="0px"
	 viewBox="0 0 2807 1604" style="enable-background:new 0 0 2807 1604;" xml:space="preserve">
<g>
	<g>
		<defs>
			<rect id="SVGID_1_" width="2806.243" height="1603.568"/>
		</defs>
		<use xlink:href="#SVGID_1_"  style="overflow:visible;fill:#FAFAFA;"/>
		<clipPath id="SVGID_00000066492024044872836580000002796821238076638081_">
			<use xlink:href="#SVGID_1_"  style="overflow:visible;"/>
		</clipPath>
		<g style="clip-path:url(#SVGID_00000066492024044872836580000002796821238076638081_);">
			<g>
				<path style="fill:#05BAFF;" d="M2805.563,1142.491c-99.451,0-203.507-41.798-309.515-124.363
					c-51.895-40.422-100.103-86.743-146.724-131.54c-36.083-34.666-73.389-70.513-112.136-103.36
					c-108.059-91.607-208.793-140.547-307.95-149.62c-133.413-12.226-258.871,48.203-380.148,106.626
					c-103.741,49.978-211.016,101.656-325.127,110.008c-174.194,12.802-336.49-75.333-472.285-163.183
					c-22.055-14.268-44.419-29.104-66.049-43.451C567.565,565.289,445.484,484.307,307.27,450.518
					c-157.773-38.581-360.182,1.612-441.787,153.029l-4.904-2.643c82.953-153.907,288.146-194.875,448.018-155.796
					c139.155,34.022,261.65,115.279,380.11,193.858c21.619,14.338,43.973,29.166,65.995,43.415
					c135.017,87.35,296.242,174.925,468.86,162.308c113.05-8.276,219.836-59.722,323.109-109.472
					c121.962-58.757,248.051-119.488,383.078-107.156c100.332,9.181,202.077,58.545,311.038,150.919
					c38.878,32.959,76.25,68.868,112.392,103.594c46.517,44.696,94.622,90.914,146.294,131.16
					c109.113,84.987,216.041,126.342,317.606,122.997c106.161-3.526,231.516-72.672,254.733-193.88l5.47,1.05
					c-23.762,124.044-151.705,194.799-260.019,198.393C2813.371,1142.425,2809.467,1142.491,2805.563,1142.491z"/>
			</g>
		</g>
		<g style="clip-path:url(#SVGID_00000066492024044872836580000002796821238076638081_);">
			<g>
				<path style="fill:#B5F6FF;" d="M550.579,926.537c-30.466,0-61.139-2.27-91.861-7.253
					c-85.433-13.86-166.853-47.983-245.592-80.983c-14.268-5.978-28.531-11.954-42.798-17.81
					c-92.719-38.037-192.42-72.655-293.459-68.403c-111.277,4.692-208.433,61.772-247.523,145.421l-5.046-2.36
					c39.96-85.506,139.008-143.848,252.33-148.625c102.05-4.293,202.501,30.531,295.808,68.816
					c14.29,5.859,28.557,11.84,42.836,17.827c78.446,32.872,159.556,66.864,244.337,80.618
					c216.927,35.199,433.005-66.304,576.652-145.715c43.032-23.786,86.336-49.22,128.22-73.816
					c130.966-76.912,266.391-156.443,414.459-198.244c234.202-66.119,498.64-30.893,707.351,94.223
					c53.21,31.899,103.654,69.725,152.428,106.305c35.349,26.505,71.894,53.912,109.183,78.832
					c107.847,72.057,204.247,108.042,294.699,110.013c114.349,2.523,221.092-58.251,259.877-147.702l5.111,2.213
					c-39.661,91.477-148.796,153.466-265.108,151.058c-91.55-1.996-188.919-38.288-297.667-110.954
					c-37.42-25.002-74.031-52.455-109.434-79.006c-48.666-36.493-98.989-74.232-151.95-105.984
					c-207.427-124.338-470.224-159.35-702.98-93.641c-147.376,41.61-282.486,120.956-413.153,197.689
					c-41.912,24.613-85.248,50.065-128.34,73.887C914.871,841.542,736.947,926.531,550.579,926.537z"/>
			</g>
		</g>
		<g style="clip-path:url(#SVGID_00000066492024044872836580000002796821238076638081_);">
			<g>
				<path style="fill:#0096F9;" d="M1047.126,1315.637c-56.637,0.003-110.603-10.462-159.872-31.825
					c-132.565-57.479-218.852-184.84-285.765-301.849c-10.147-17.737-20.157-35.653-30.183-53.605
					c-58.115-104.035-118.21-211.612-209.216-289.123C211.048,510.591-17.188,485.019-192.954,577.05l-2.583-4.932
					c177.729-93.062,408.516-67.196,561.237,62.876c91.767,78.163,152.112,186.183,210.467,290.648
					c10.016,17.935,20.021,35.835,30.15,53.559c66.467,116.209,152.08,242.673,283.155,299.505
					c153.967,66.756,355.027,25.572,537.801-110.195c81.105-60.247,154.331-132.655,225.148-202.681
					c64.162-63.444,130.504-129.047,202.659-185.596c86.602-67.875,312.501-217.329,539.182-139.299
					c78.892,27.154,146.768,79.085,212.408,129.305l8.444,6.454c71.231,54.426,141.901,105.086,223.197,126.902
					c92.056,24.699,185.243,3.145,237.366-54.929l4.144,3.719c-53.51,59.617-148.861,81.839-242.956,56.588
					c-82.274-22.079-153.439-73.077-225.132-127.853l-8.444-6.457c-65.287-49.951-132.804-101.604-210.842-128.465
					c-224.061-77.131-448.04,71.105-533.93,138.418c-71.905,56.354-138.133,121.843-202.181,185.173
					c-70.953,70.162-144.321,142.711-225.746,203.191C1304.497,1266.644,1169.621,1315.63,1047.126,1315.637z"/>
			</g>
		</g>
		<g style="clip-path:url(#SVGID_00000066492024044872836580000002796821238076638081_);">
			<g>
				<path style="fill:#75E2FF;" d="M1450.514,1220.523c-252.346,0.011-469.333-184.843-612.234-326.034
					c-25.11-24.809-50.536-50.563-75.124-75.469C615.784,669.74,463.395,515.379,266.13,446.313
					c-227.693-79.718-491.86-28.242-672.971,131.165l-3.675-4.181c88.967-78.307,200.223-132.22,321.744-155.902
					c121.505-23.685,244.875-15.502,356.74,23.664c198.483,69.493,351.335,224.319,499.152,374.05
					c24.577,24.895,49.987,50.637,75.075,75.423c146.833,145.071,372.215,336.494,632.946,323.83
					c133.217-6.46,269.229-64.521,428.046-182.717c42.902-31.929,85.276-66.204,126.258-99.351
					c80.083-64.773,162.895-131.749,253.445-184.318c92.464-53.675,274.629-135.577,455.864-80.893
					c108.075,32.605,198.728,109.382,278.713,177.122l152.977,129.569l-3.6,4.247L3013.866,848.45
					c-79.571-67.386-169.757-143.769-276.722-176.04c-179.218-54.073-359.774,27.155-451.46,80.382
					c-90.18,52.352-172.818,119.192-252.738,183.829c-41.025,33.182-83.443,67.495-126.431,99.486
					c-159.746,118.89-296.732,177.299-431.102,183.816C1467.082,1220.325,1458.773,1220.523,1450.514,1220.523z"/>
			</g>
		</g>
	</g>
</g>
</svg>
